<mxfile host="Electron" modified="2023-10-15T07:41:20.067Z" agent="Mozilla/5.0 (Windows NT 10.0; Win64; x64) AppleWebKit/537.36 (KHTML, like Gecko) draw.io/21.8.2 Chrome/114.0.5735.289 Electron/25.8.1 Safari/537.36" etag="CU4A-D25_xPImPV7ubxp" version="21.8.2" type="device">
  <diagram name="Page-1" id="jEPhToE82urO1ip4dzcm">
    <mxGraphModel dx="1117" dy="614" grid="1" gridSize="10" guides="1" tooltips="1" connect="1" arrows="1" fold="1" page="1" pageScale="1" pageWidth="1100" pageHeight="850" math="0" shadow="0">
      <root>
        <mxCell id="0" />
        <mxCell id="1" parent="0" />
        <mxCell id="ehyNbCi_-fo6IZpTJdrK-1" value="&lt;b&gt;&lt;font style=&quot;font-size: 48px;&quot;&gt;CSS Grid Layout&lt;/font&gt;&lt;/b&gt;" style="text;html=1;strokeColor=none;fillColor=none;align=center;verticalAlign=middle;whiteSpace=wrap;rounded=0;" vertex="1" parent="1">
          <mxGeometry x="290" y="20" width="570" height="40" as="geometry" />
        </mxCell>
        <mxCell id="ehyNbCi_-fo6IZpTJdrK-2" value="" style="rounded=0;whiteSpace=wrap;html=1;" vertex="1" parent="1">
          <mxGeometry x="50" y="80" width="990" height="520" as="geometry" />
        </mxCell>
        <mxCell id="ehyNbCi_-fo6IZpTJdrK-3" value="&lt;font style=&quot;font-size: 24px;&quot;&gt;Laptop Screen&lt;/font&gt;" style="text;html=1;strokeColor=none;fillColor=none;align=center;verticalAlign=middle;whiteSpace=wrap;rounded=0;" vertex="1" parent="1">
          <mxGeometry x="420" y="90" width="230" height="30" as="geometry" />
        </mxCell>
        <mxCell id="ehyNbCi_-fo6IZpTJdrK-4" value="" style="rounded=0;whiteSpace=wrap;html=1;" vertex="1" parent="1">
          <mxGeometry x="370" y="630" width="330" height="510" as="geometry" />
        </mxCell>
        <mxCell id="ehyNbCi_-fo6IZpTJdrK-5" value="&lt;font style=&quot;font-size: 24px;&quot;&gt;Mobile Screen&lt;/font&gt;" style="text;html=1;strokeColor=none;fillColor=none;align=center;verticalAlign=middle;whiteSpace=wrap;rounded=0;" vertex="1" parent="1">
          <mxGeometry x="437.5" y="640" width="195" height="30" as="geometry" />
        </mxCell>
        <mxCell id="ehyNbCi_-fo6IZpTJdrK-6" value="1" style="rounded=0;whiteSpace=wrap;html=1;" vertex="1" parent="1">
          <mxGeometry x="50" y="150" width="330" height="70" as="geometry" />
        </mxCell>
        <mxCell id="ehyNbCi_-fo6IZpTJdrK-7" value="2" style="rounded=0;whiteSpace=wrap;html=1;" vertex="1" parent="1">
          <mxGeometry x="380" y="150" width="330" height="70" as="geometry" />
        </mxCell>
        <mxCell id="ehyNbCi_-fo6IZpTJdrK-8" value="3" style="rounded=0;whiteSpace=wrap;html=1;" vertex="1" parent="1">
          <mxGeometry x="710" y="150" width="330" height="70" as="geometry" />
        </mxCell>
        <mxCell id="ehyNbCi_-fo6IZpTJdrK-9" value="4" style="rounded=0;whiteSpace=wrap;html=1;" vertex="1" parent="1">
          <mxGeometry x="50" y="220" width="330" height="70" as="geometry" />
        </mxCell>
        <mxCell id="ehyNbCi_-fo6IZpTJdrK-15" value="1" style="rounded=0;whiteSpace=wrap;html=1;" vertex="1" parent="1">
          <mxGeometry x="370" y="680" width="330" height="50" as="geometry" />
        </mxCell>
        <mxCell id="ehyNbCi_-fo6IZpTJdrK-16" value="2" style="rounded=0;whiteSpace=wrap;html=1;" vertex="1" parent="1">
          <mxGeometry x="370" y="740" width="330" height="50" as="geometry" />
        </mxCell>
        <mxCell id="ehyNbCi_-fo6IZpTJdrK-17" value="3" style="rounded=0;whiteSpace=wrap;html=1;" vertex="1" parent="1">
          <mxGeometry x="370" y="810" width="330" height="50" as="geometry" />
        </mxCell>
      </root>
    </mxGraphModel>
  </diagram>
</mxfile>
